Kick-Ass (2010) R5 XViD-MAX

Format                           : AVI 
Format/Info                      : Audio Video Interleave  
File size                        : 1.36 GiB  
Duration                         : 1h 53mn 
Overall bit rate                 : 1 726 Kbps 
Writing application              : VirtualDubMod 1.5.10.2 (build 2542/release)
Writing library                  : VirtualDubMod build 2542/release 
Original source form             : MAX TORRENTZ
Copyright                        : SIGISMUNT

Video
ID                               : 0
Format                           : MPEG-4 Visual 
Format profile                   : AdvancedSimple@L5
Format settings, BVOP            : Yes
Format settings, QPel            : No
Format settings, GMC             : No warppoints
Format settings, Matrix          : Default (H.263)
Codec ID                         : XVID 
Codec ID/Hint                    : XviD
Duration                         : 1h 53mn
Bit rate                         : 1 333 Kbps
Width                            : 640 pixels
Height                           : 272 pixels
Display aspect ratio             : 2.35:1
Frame rate                       : 25.000 fps
Resolution                       : 24 bits
Colorimetry                      : 4:2:0
Scan type                        : Progressive
Bits/(Pixel*Frame)               : 0.306
Stream size                      : 1.05 GiB (77%)
Writing library                  : XviD 1.1.2 (UTC 2006-11-01)

Audio
ID                               : 1
Format                           : AC-3
Format/Info                      : Audio Coding 3
Codec ID                         : 2000 
Duration                         : 1h 52mn
Bit rate mode                    : Constant 
Bit rate                         : 384 Kbps
Channel(s)                       : 6 channels
Channel positions                : Front: L C R, Surround: L R, LFE
Sampling rate                    : 48.0 KHz
Stream size                      : 310 MiB (22%)
Alignment                        : Split accross interleaves
Interleave, duration             : 40 ms (1.00 video frame)
Interleave, preload duration     : 500 ms

Source: COALiTiON - perfect a/v quality , perfect sync,i don't know why he tag it as r5 because is pure dvdrip 

Encode Note: Audio/Video 10/9 Movie: 8/10  
http://www.imdb.com/title/tt1250777/ 

Screens: 
http://www.postimg.com/image/15000/14261.jpg 
http://www.postimg.com/image/15000/14262.jpg 
http://www.postimg.com/image/15000/14263.jpg 
http://www.postimg.com/image/15000/14264.jpg 
http://www.postimg.com/image/15000/14265.jpg

ScreenCaps: 
http://www.postimg.com/image/15000/14267.jpg

Kick-Ass (2010) R5 XViD-MAX Torrent Free Download 
http://thepiratebay.org/user/extremezone/0/7

How To Get Your Maxspeed (uTorrent)

Torrent Client - Preferences - Bandwidth - Number of connections - Set aprox. 500 for each 
Torrent Client - Preferences - BiTorrent - Protocol Encryption - Forced
Bandwidth Allocation - High (Set download/upload limit - Unlimited)
Stop Other Active Torrents - Start downloading and wait for connections
Enjoy and Seed for at least 1:1 ratio. Don't forget to say thanks/leave reviews.
Also please spread the link where you found this torrent to your friends.
Recommended player for all our movies VLC PLAYER.